<?xml version="1.0" standalone="no"?><svg xmlns="http://www.w3.org/2000/svg" viewBox="0 0 1440 320"><path fill="#0099ff" fill-opacity="1" d="M0,192L24,192C48,192,96,192,144,202.7C192,213,240,235,288,250.7C336,267,384,277,432,282.7C480,288,528,288,576,282.7C624,277,672,267,720,240C768,213,816,171,864,165.3C912,160,960,192,1008,197.3C1056,203,1104,181,1152,186.7C1200,192,1248,224,1296,240C1344,256,1392,256,1416,256L1440,256L1440,0L1416,0C1392,0,1344,0,1296,0C1248,0,1200,0,1152,0C1104,0,1056,0,1008,0C960,0,912,0,864,0C816,0,768,0,720,0C672,0,624,0,576,0C528,0,480,0,432,0C384,0,336,0,288,0C240,0,192,0,144,0C96,0,48,0,24,0L0,0Z"></path></svg>