<?xml version="1.0" standalone="no"?><svg xmlns="http://www.w3.org/2000/svg" viewBox="0 0 1440 320"><path fill="#0099ff" fill-opacity="1" d="M0,32L51.4,96L102.9,288L154.3,224L205.7,128L257.1,320L308.6,288L360,160L411.4,288L462.9,128L514.3,192L565.7,32L617.1,0L668.6,32L720,256L771.4,128L822.9,96L874.3,256L925.7,32L977.1,288L1028.6,256L1080,160L1131.4,320L1182.9,96L1234.3,96L1285.7,160L1337.1,192L1388.6,128L1440,320L1440,0L1388.6,0L1337.1,0L1285.7,0L1234.3,0L1182.9,0L1131.4,0L1080,0L1028.6,0L977.1,0L925.7,0L874.3,0L822.9,0L771.4,0L720,0L668.6,0L617.1,0L565.7,0L514.3,0L462.9,0L411.4,0L360,0L308.6,0L257.1,0L205.7,0L154.3,0L102.9,0L51.4,0L0,0Z"></path></svg>